<svg xmlns="http://www.w3.org/2000/svg" width="90.71" height="90.71"><path fill="#fff" d="M60.056 34.249c-1.18.57-2.434.938-3.763 1.109 1.354-.872 2.394-2.245 2.886-3.89-1.267.803-2.669 1.377-4.163 1.712-1.188-1.375-2.895-2.232-4.771-2.232-3.613 0-6.541 3.149-6.541 7.044 0 .547.057 1.088.165 1.597-5.426-.28-10.253-3.095-13.482-7.348-.561 1.037-.882 2.245-.882 3.54 0 2.438 1.153 4.606 2.912 5.851-1.074-.044-2.083-.344-2.964-.876v.096c0 3.406 2.254 6.247 5.247 6.905-.548.16-1.127.232-1.728.232-.42 0-.819-.029-1.223-.125.829 2.809 3.247 4.848 6.109 4.891-2.239 1.896-5.059 3.012-8.124 3.012-.529 0-1.052-.029-1.562-.098 2.894 2.008 6.326 3.178 10.028 3.178 12.031 0 18.614-10.734 18.614-20.041 0-.297-.007-.599-.021-.901 1.274-1.005 2.386-2.247 3.263-3.656z"/><g><rect x=".964" y=".812" fill="#2CABE2" width="89.156" height="89.157"/><path fill="#fff" d="M43.278 37.58c.57.796.857 1.748.857 2.856 0 1.142-.287 2.061-.864 2.755-.325.389-.8.745-1.43 1.065.955.35 1.675.9 2.163 1.653.485.751.729 1.666.729 2.742 0 1.108-.276 2.104-.834 2.983-.354.582-.795 1.074-1.325 1.472-.597.458-1.299.77-2.112.94-.813.169-1.693.252-2.645.252h-8.432v-18.713h9.042c2.284.035 3.898.699 4.851 1.995zm-10.162 1.256v4.128h4.55c.811 0 1.471-.156 1.98-.465.504-.31.76-.858.76-1.642 0-.874-.336-1.448-1.005-1.729-.579-.195-1.316-.292-2.211-.292h-4.074zm0 7.224v4.989h4.543c.812 0 1.444-.109 1.896-.328.822-.409 1.23-1.187 1.23-2.336 0-.975-.395-1.643-1.191-2.008-.444-.203-1.068-.31-1.87-.317h-4.608zm22.931-5.318c.966.431 1.763 1.114 2.389 2.047.571.821.938 1.776 1.105 2.86.098.636.138 1.552.12 2.747h-10.08c.059 1.389.537 2.361 1.448 2.919.553.348 1.217.521 1.995.521.821 0 1.492-.211 2.007-.634.283-.229.532-.546.746-.952h3.694c-.098.819-.546 1.654-1.341 2.502-1.239 1.344-2.975 2.018-5.205 2.018-1.843 0-3.469-.566-4.873-1.703-1.412-1.134-2.112-2.982-2.112-5.537 0-2.4.634-4.237 1.903-5.518 1.272-1.277 2.921-1.918 4.948-1.918 1.206-.001 2.291.215 3.256.648zm-5.412 3.125c-.512.528-.833 1.242-.966 2.143h6.236c-.065-.961-.389-1.688-.963-2.188-.58-.497-1.295-.745-2.148-.745-.927 0-1.648.264-2.159.79zm6.117-7.409h-8.018v2.328h8.018v-2.328z"/></g></svg>