<svg xmlns="http://www.w3.org/2000/svg" width="90.71" height="90.71"><path fill="#fff" d="M60.056 34.249c-1.18.57-2.434.938-3.763 1.109 1.354-.872 2.394-2.245 2.886-3.89-1.267.803-2.669 1.377-4.163 1.712-1.188-1.375-2.895-2.232-4.771-2.232-3.613 0-6.541 3.149-6.541 7.044 0 .547.057 1.088.165 1.597-5.426-.28-10.253-3.095-13.482-7.348-.561 1.037-.882 2.245-.882 3.54 0 2.438 1.153 4.606 2.912 5.851-1.074-.044-2.083-.344-2.964-.876v.096c0 3.406 2.254 6.247 5.247 6.905-.548.16-1.127.232-1.728.232-.42 0-.819-.029-1.223-.125.829 2.809 3.247 4.848 6.109 4.891-2.239 1.896-5.059 3.012-8.124 3.012-.529 0-1.052-.029-1.562-.098 2.894 2.008 6.326 3.178 10.028 3.178 12.031 0 18.614-10.734 18.614-20.041 0-.297-.007-.599-.021-.901 1.274-1.005 2.386-2.247 3.263-3.656z"/><g><rect x=".964" y=".775" fill="#DC7BA6" width="89.156" height="89.156"/><path fill-rule="evenodd" clip-rule="evenodd" fill="#fff" d="M58.647 42.216c-.189-.926-.473-1.838-.841-2.709-.361-.855-.809-1.679-1.329-2.449-.516-.763-1.107-1.481-1.759-2.132-.652-.653-1.37-1.245-2.133-1.76-.771-.521-1.595-.968-2.449-1.33-.871-.367-1.782-.652-2.709-.839-.949-.195-1.926-.294-2.902-.294s-1.953.099-2.903.294c-.926.188-1.838.473-2.709.839-.854.362-1.679.809-2.449 1.33-.763.515-1.48 1.107-2.133 1.76-.651.651-1.243 1.369-1.758 2.132-.521.77-.969 1.593-1.33 2.449-.368.871-.651 1.784-.841 2.709-.194.948-.293 1.925-.293 2.901 0 .979.099 1.956.293 2.905.189.926.473 1.838.841 2.708.361.854.81 1.681 1.33 2.45.515.764 1.106 1.479 1.758 2.132.652.651 1.37 1.243 2.133 1.759.771.521 1.596.969 2.449 1.329.871.369 1.783.65 2.709.841.95.195 1.927.293 2.903.293s1.953-.098 2.902-.293c.927-.19 1.838-.472 2.709-.841.854-.36 1.679-.809 2.449-1.329.763-.516 1.48-1.107 2.133-1.759.651-.652 1.243-1.368 1.759-2.132.521-.77.968-1.596 1.329-2.45.368-.87.651-1.782.841-2.708.194-.949.293-1.926.293-2.905 0-.976-.098-1.953-.293-2.901zm-1.815 2.779c-.178-.039-4.345-.936-8.574-.403l-.266-.636c-.256-.603-.532-1.199-.818-1.786 4.861-1.984 6.836-4.838 6.858-4.873 1.728 2.098 2.772 4.776 2.8 7.698zm-4.176-9.117c-.03.048-1.783 2.717-6.431 4.458-2.104-3.867-4.416-6.938-4.602-7.182.931-.226 1.901-.348 2.901-.348 3.119.001 5.963 1.163 8.132 3.072zm-11.079-2.713l-.003.002-.036.008.039-.01zm-2.305.818c.164.22 2.44 3.307 4.571 7.094-5.911 1.57-11.041 1.509-11.366 1.503.8-3.813 3.363-6.975 6.795-8.597zm-7.057 11.134l.01-.388c.217.004 6.301.142 12.639-1.754.354.69.69 1.392.999 2.092l-.485.146c-6.644 2.147-10.013 8.125-10.013 8.125l.004.006c-1.961-2.18-3.154-5.065-3.154-8.227zm12.31 12.313c-2.979 0-5.712-1.061-7.842-2.822l.275.216s2.36-5.147 9.661-7.69l.082-.026c1.731 4.501 2.447 8.271 2.63 9.348-1.476.626-3.101.974-4.806.974zm6.879-2.102c-.125-.743-.781-4.355-2.396-8.793 3.975-.636 7.418.454 7.673.537-.548 3.431-2.512 6.39-5.277 8.256z"/></g></svg>