<svg xmlns="http://www.w3.org/2000/svg" width="90.71" height="90.71"><path fill="#fff" d="M60.056 34.249c-1.18.57-2.434.938-3.763 1.109 1.354-.872 2.394-2.245 2.886-3.89-1.267.803-2.669 1.377-4.163 1.712-1.188-1.375-2.895-2.232-4.771-2.232-3.613 0-6.541 3.149-6.541 7.044 0 .547.057 1.088.165 1.597-5.426-.28-10.253-3.095-13.482-7.348-.561 1.037-.882 2.245-.882 3.54 0 2.438 1.153 4.606 2.912 5.851-1.074-.044-2.083-.344-2.964-.876v.096c0 3.406 2.254 6.247 5.247 6.905-.548.16-1.127.232-1.728.232-.42 0-.819-.029-1.223-.125.829 2.809 3.247 4.848 6.109 4.891-2.239 1.896-5.059 3.012-8.124 3.012-.529 0-1.052-.029-1.562-.098 2.894 2.008 6.326 3.178 10.028 3.178 12.031 0 18.614-10.734 18.614-20.041 0-.297-.007-.599-.021-.901 1.274-1.005 2.386-2.247 3.263-3.656z"/><g><rect x=".952" y=".434" fill="#545155" width="89.157" height="89.157"/><g fill="#fff"><path d="M45.832 47.543c-.872-.617-2.538-2.118-2.538-3.001 0-1.036.295-1.544 1.851-2.761 1.595-1.247 2.726-3 2.726-5.038 0-2.427-1.082-4.792-3.11-5.573h3.059l2.159-1.561h-9.649c-4.324 0-8.396 3.277-8.396 7.072 0 3.879 2.949 7.011 7.35 7.011.307 0 .603-.007.895-.027-.285.546-.491 1.163-.491 1.801 0 1.078.581 1.953 1.314 2.667l-1.671.017c-5.359 0-9.483 3.411-9.483 6.95 0 3.484 4.521 5.664 9.878 5.664 6.108 0 9.483-3.465 9.483-6.95-.002-2.795-.827-4.469-3.377-6.271zm-5.153-4.835c-2.485-.074-4.849-2.78-5.277-6.044-.429-3.265 1.239-5.763 3.724-5.689 2.484.075 4.849 2.693 5.277 5.958.428 3.264-1.239 5.85-3.724 5.775zm-.974 16.515c-3.704 0-6.379-2.344-6.379-5.16 0-2.76 3.318-5.058 7.022-5.018.864.01 1.669.148 2.4.385 2.009 1.399 3.452 2.188 3.858 3.782.077.323.119.654.119.994.002 2.817-1.812 5.017-7.02 5.017z"/><polygon points="56.114,42.992 56.114,39.237 53.092,39.237 53.092,42.992 49.336,42.992 49.336,46.016 53.092,46.016 53.092,49.772 56.114,49.772 56.114,46.016 59.871,46.016 59.871,42.992"/></g></g></svg>