<svg xmlns="http://www.w3.org/2000/svg" width="90.71" height="90.71"><path fill="#fff" d="M60.056 34.249c-1.18.57-2.434.938-3.763 1.109 1.354-.872 2.394-2.245 2.886-3.89-1.267.803-2.669 1.377-4.163 1.712-1.188-1.375-2.895-2.232-4.771-2.232-3.613 0-6.541 3.149-6.541 7.044 0 .547.057 1.088.165 1.597-5.426-.28-10.253-3.095-13.482-7.348-.561 1.037-.882 2.245-.882 3.54 0 2.438 1.153 4.606 2.912 5.851-1.074-.044-2.083-.344-2.964-.876v.096c0 3.406 2.254 6.247 5.247 6.905-.548.16-1.127.232-1.728.232-.42 0-.819-.029-1.223-.125.829 2.809 3.247 4.848 6.109 4.891-2.239 1.896-5.059 3.012-8.124 3.012-.529 0-1.052-.029-1.562-.098 2.894 2.008 6.326 3.178 10.028 3.178 12.031 0 18.614-10.734 18.614-20.041 0-.297-.007-.599-.021-.901 1.274-1.005 2.386-2.247 3.263-3.656z"/><g><rect x=".952" y=".652" fill="#D1CCB9" width="89.157" height="89.157"/><path fill="#fff" d="M53.982 30.221h-18.248c-3.17 0-5.75 2.578-5.75 5.749v18.251c0 3.17 2.579 5.748 5.75 5.748h18.249c3.171 0 5.75-2.578 5.75-5.748v-18.251c-.001-3.171-2.58-5.749-5.751-5.749zm1.651 3.429l.658-.002v5.042l-5.027.016-.018-5.042 4.387-.014zm-15.019 8.392c.952-1.319 2.498-2.183 4.245-2.183s3.294.864 4.245 2.183c.621.861.992 1.913.992 3.053 0 2.887-2.351 5.235-5.237 5.235s-5.235-2.348-5.235-5.235c-.001-1.14.37-2.192.99-3.053zm16.22 12.179c0 1.572-1.277 2.85-2.852 2.85h-18.248c-1.573 0-2.851-1.277-2.851-2.85v-12.179h4.441c-.385.943-.6 1.974-.6 3.053 0 4.485 3.648 8.135 8.134 8.135s8.134-3.65 8.134-8.135c0-1.08-.217-2.11-.6-3.053h4.441v12.179z"/></g></svg>