<svg xmlns="http://www.w3.org/2000/svg" width="90.71" height="90.71"><path fill="#fff" d="M60.056 34.249c-1.18.57-2.434.938-3.763 1.109 1.354-.872 2.394-2.245 2.886-3.89-1.267.803-2.669 1.377-4.163 1.712-1.188-1.375-2.895-2.232-4.771-2.232-3.613 0-6.541 3.149-6.541 7.044 0 .547.057 1.088.165 1.597-5.426-.28-10.253-3.095-13.482-7.348-.561 1.037-.882 2.245-.882 3.54 0 2.438 1.153 4.606 2.912 5.851-1.074-.044-2.083-.344-2.964-.876v.096c0 3.406 2.254 6.247 5.247 6.905-.548.16-1.127.232-1.728.232-.42 0-.819-.029-1.223-.125.829 2.809 3.247 4.848 6.109 4.891-2.239 1.896-5.059 3.012-8.124 3.012-.529 0-1.052-.029-1.562-.098 2.894 2.008 6.326 3.178 10.028 3.178 12.031 0 18.614-10.734 18.614-20.041 0-.297-.007-.599-.021-.901 1.274-1.005 2.386-2.247 3.263-3.656z"/><g><rect x="1.253" y=".812" fill="#A0CEE1" width="89.156" height="89.157"/><path fill="#fff" d="M37.393 59.066h-5.897v-18.87h5.897v18.87zm-3.101-21.231h-.042c-2.134 0-3.518-1.443-3.518-3.27 0-1.864 1.425-3.277 3.602-3.277 2.175 0 3.514 1.409 3.556 3.271 0 1.829-1.381 3.276-3.598 3.276zm26.692 21.231h-6.687v-9.766c0-2.556-1.045-4.3-3.346-4.3-1.759 0-2.736 1.177-3.192 2.312-.17.406-.145.975-.145 1.543v10.211h-6.624s.086-17.298 0-18.871h6.624v2.961c.392-1.295 2.508-3.144 5.888-3.144 4.189 0 7.481 2.715 7.481 8.56v10.494z"/></g></svg>