<svg xmlns="http://www.w3.org/2000/svg" width="90.71" height="90.71"><path fill="#fff" d="M60.056 34.249c-1.18.57-2.434.938-3.763 1.109 1.354-.872 2.394-2.245 2.886-3.89-1.267.803-2.669 1.377-4.163 1.712-1.188-1.375-2.895-2.232-4.771-2.232-3.613 0-6.541 3.149-6.541 7.044 0 .547.057 1.088.165 1.597-5.426-.28-10.253-3.095-13.482-7.348-.561 1.037-.882 2.245-.882 3.54 0 2.438 1.153 4.606 2.912 5.851-1.074-.044-2.083-.344-2.964-.876v.096c0 3.406 2.254 6.247 5.247 6.905-.548.16-1.127.232-1.728.232-.42 0-.819-.029-1.223-.125.829 2.809 3.247 4.848 6.109 4.891-2.239 1.896-5.059 3.012-8.124 3.012-.529 0-1.052-.029-1.562-.098 2.894 2.008 6.326 3.178 10.028 3.178 12.031 0 18.614-10.734 18.614-20.041 0-.297-.007-.599-.021-.901 1.274-1.005 2.386-2.247 3.263-3.656z"/><g><rect x=".65" y=".434" fill="#EB5A5A" width="89.156" height="89.157"/><path fill="#fff" d="M44.526 29.851c-8.373 0-15.162 6.788-15.162 15.161 0 6.208 3.734 11.542 9.077 13.887-.043-1.058-.008-2.33.263-3.481.292-1.23 1.95-8.262 1.95-8.262s-.484-.968-.484-2.398c0-2.247 1.303-3.925 2.924-3.925 1.379 0 2.045 1.035 2.045 2.276 0 1.387-.884 3.46-1.339 5.38-.38 1.608.806 2.92 2.393 2.92 2.873 0 4.807-3.688 4.807-8.061 0-3.322-2.238-5.81-6.308-5.81-4.599 0-7.464 3.43-7.464 7.26 0 1.321.389 2.253.998 2.974.281.333.32.465.219.847l-.309 1.216c-.101.384-.412.521-.758.38-2.119-.865-3.105-3.185-3.105-5.792 0-4.307 3.631-9.473 10.834-9.473 5.789 0 9.599 4.19 9.599 8.686 0 5.949-3.306 10.391-8.181 10.391-1.636 0-3.176-.884-3.703-1.889 0 0-.881 3.492-1.067 4.167-.32 1.169-.951 2.337-1.526 3.247 1.363.403 2.804.623 4.297.623 8.373 0 15.161-6.789 15.161-15.162s-6.789-15.162-15.161-15.162z"/></g></svg>