<svg xmlns="http://www.w3.org/2000/svg" width="90.71" height="90.71"><path fill="#fff" d="M60.056 34.249c-1.18.57-2.434.938-3.763 1.109 1.354-.872 2.394-2.245 2.886-3.89-1.267.803-2.669 1.377-4.163 1.712-1.188-1.375-2.895-2.232-4.771-2.232-3.613 0-6.541 3.149-6.541 7.044 0 .547.057 1.088.165 1.597-5.426-.28-10.253-3.095-13.482-7.348-.561 1.037-.882 2.245-.882 3.54 0 2.438 1.153 4.606 2.912 5.851-1.074-.044-2.083-.344-2.964-.876v.096c0 3.406 2.254 6.247 5.247 6.905-.548.16-1.127.232-1.728.232-.42 0-.819-.029-1.223-.125.829 2.809 3.247 4.848 6.109 4.891-2.239 1.896-5.059 3.012-8.124 3.012-.529 0-1.052-.029-1.562-.098 2.894 2.008 6.326 3.178 10.028 3.178 12.031 0 18.614-10.734 18.614-20.041 0-.297-.007-.599-.021-.901 1.274-1.005 2.386-2.247 3.263-3.656z"/><g><rect x="1.253" y=".434" fill="#4D7DA4" width="89.156" height="89.157"/><path fill="#fff" d="M47.034 28.889v8.082h7.586v5.02h-7.586v8.199c0 1.855.097 3.045.293 3.569.195.529.561.948 1.099 1.264.705.424 1.513.634 2.425.634 1.62 0 3.229-.527 4.831-1.579v5.046c-1.368.641-2.604 1.094-3.711 1.353-1.108.262-2.306.39-3.593.39-1.464 0-2.756-.185-3.878-.552-1.122-.373-2.082-.896-2.873-1.58-.794-.684-1.346-1.412-1.65-2.182-.308-.769-.46-1.885-.46-3.347v-11.216h-3.537v-4.524c1.26-.409 2.334-.995 3.229-1.755.895-.763 1.616-1.677 2.156-2.747.541-1.065.916-2.427 1.12-4.075h4.549z"/></g></svg>