<svg xmlns="http://www.w3.org/2000/svg" width="90.71" height="90.71"><path fill="#fff" d="M60.056 34.249c-1.18.57-2.434.938-3.763 1.109 1.354-.872 2.394-2.245 2.886-3.89-1.267.803-2.669 1.377-4.163 1.712-1.188-1.375-2.895-2.232-4.771-2.232-3.613 0-6.541 3.149-6.541 7.044 0 .547.057 1.088.165 1.597-5.426-.28-10.253-3.095-13.482-7.348-.561 1.037-.882 2.245-.882 3.54 0 2.438 1.153 4.606 2.912 5.851-1.074-.044-2.083-.344-2.964-.876v.096c0 3.406 2.254 6.247 5.247 6.905-.548.16-1.127.232-1.728.232-.42 0-.819-.029-1.223-.125.829 2.809 3.247 4.848 6.109 4.891-2.239 1.896-5.059 3.012-8.124 3.012-.529 0-1.052-.029-1.562-.098 2.894 2.008 6.326 3.178 10.028 3.178 12.031 0 18.614-10.734 18.614-20.041 0-.297-.007-.599-.021-.901 1.274-1.005 2.386-2.247 3.263-3.656z"/><g><rect x=".65" y=".652" fill="#98D4E3" width="89.156" height="89.157"/><path fill="#fff" d="M59.603 38.229c-.132 2.935-2.187 6.949-6.151 12.04-4.104 5.325-7.581 7.985-10.421 7.985-1.758 0-3.247-1.619-4.463-4.867l-2.437-8.93c-.905-3.25-1.874-4.873-2.91-4.873-.226 0-1.012.474-2.368 1.422l-1.419-1.83c1.487-1.304 2.954-2.615 4.399-3.92 1.981-1.715 3.47-2.615 4.465-2.708 2.341-.228 3.787 1.375 4.331 4.802.581 3.7.99 6.001 1.215 6.903.678 3.065 1.42 4.597 2.233 4.597.629 0 1.577-.99 2.841-2.973 1.264-1.986 1.938-3.496 2.029-4.536.18-1.713-.496-2.566-2.029-2.566-.721 0-1.467.153-2.232.473 1.49-4.827 4.331-7.172 8.525-7.036 3.107.088 4.574 2.097 4.392 6.017z"/></g></svg>